<svg xmlns="http://www.w3.org/2000/svg" width=".75em" height=".75em" viewBox="0 0 32 32"><path fill="#002fa7" d="M26.462 12.477c-.65.788-2.322 1.108-3.65.702-1.268-.388-1.676-1.276-.99-1.976.662-.675 2.142-.966 3.375-.661 1.289.318 1.889 1.178 1.265 1.935m-5.86-1.61c-.694.678-2.183.97-3.258.641-.598-.183-.928-.563-.946-.881-.013-.245-.4-.47-.824-.591-.428-.123-.923-.111-1.419-.054-.126.015-.391.07-.561.124-.456.146-.851.31-1.18.571-.41.326-.545.904-.536 1.12.013.3.304.558.746.717.434.157.975.185 1.513.104.657-.17 1.377-.176 1.968.022 1.081.365 1.354 1.297.536 2.096-.852.832-2.491 1.145-3.58.686-.605-.254-.817-.718-.85-1.147-.025-.335-.338-.603-.765-.77-.43-.17-.932-.163-1.493-.117-.074.006-.407.07-.613.122-.281.07-.86.226-1.344.683a2.9 2.9 0 0 0-.653.907 1.8 1.8 0 0 0-.127.476c-.013.378.211.719.647.938.43.216.998.274 1.585.192.73-.19 1.497-.17 2.09.107 1.09.509 1.217 1.719.194 2.718-1.071 1.047-2.896 1.382-3.975.737-.592-.353-.764-.886-.68-1.507v-.003c0-.003-.003-.149-.023-.226a1 1 0 0 0-.098-.281 1.3 1.3 0 0 0-.537-.523c-.42-.233-.977-.292-1.557-.21-.726.189-1.437.162-1.904-.117-.796-.476-.558-1.485.464-2.248a4.2 4.2 0 0 1 1.775-.752l.003-.002a4 4 0 0 0 1.637-.72c.457-.35.695-.732.716-1.062l.002-.002a1.7 1.7 0 0 0-.025-.358c-.02-.285-.005-.567.265-.875.174-.196.55-.387.96-.46.282-.051.644-.04.849-.05a4 4 0 0 0 .596-.075c.415-.119.662-.252.969-.487.313-.241.508-.494.542-.724.007-.049.024-.274.019-.301-.105-.54.681-1.133 1.756-1.324.545-.096 1.058-.071 1.447.047l.04.009c.394.097.644.278.739.499l.004.001.002.016q.024.06.033.124c.093.237.363.44.802.556.43.113.944.122 1.44.042.599-.153 1.275-.178 1.855-.034 1.058.26 1.422.993.753 1.646m-2.51 12.014c-1.06 1.291-3.177 1.664-4.593.818-1.334-.798-1.452-2.34-.38-3.437 1.023-1.048 2.84-1.384 4.164-.766 1.4.653 1.814 2.16.808 3.385M28.482 7.286 15.768.261a2.12 2.12 0 0 0-2.036 0L1.018 7.286A1.94 1.94 0 0 0 0 8.975v14.05c0 .697.388 1.34 1.018 1.689l12.714 7.025c.63.348 1.406.348 2.036 0l12.714-7.025a1.94 1.94 0 0 0 1.018-1.689V8.975c0-.697-.388-1.34-1.018-1.689"/></svg>